# xmcd CD database file
#
# Track frame offsets:
#	150
#	21203
#	40880
#
# Disc length: 823 seconds
#
# Revision: 0
# Processed by: cddbd v1.5.1PL0 Copyright (c) Steve Scherf et al.
# Submitted via: CDex 1.51
#
DISCID=1c033503
DTITLE=酒井ミキオ - Regrets
DYEAR=1997
DGENRE=JPop
TTITLE0=Regrets
TTITLE1=Kiss me once again
TTITLE2=Regrets (Backing Tracks)
EXTD=YEAR: 1997
EXTT0=
EXTT1=
EXTT2=
PLAYORDER=
